<svg width="39" height="39" viewBox="0 0 39 39" fill="none" xmlns="http://www.w3.org/2000/svg">
<path d="M25.2452 9.92459L19.4999 15.6698L13.7547 9.9246C12.6976 8.86747 10.9817 8.86747 9.92453 9.92459C8.8674 10.9817 8.8674 12.6976 9.92453 13.7548L15.6698 19.5L9.92453 25.2452C8.8674 26.3024 8.8674 28.0183 9.92453 29.0754C10.9817 30.1325 12.6976 30.1325 13.7547 29.0754L19.4999 23.3302L25.2452 29.0754C26.3023 30.1325 28.0182 30.1325 29.0753 29.0754C30.1325 28.0183 30.1325 26.3024 29.0753 25.2452L23.3301 19.5L29.0753 13.7548C30.1325 12.6976 30.1325 10.9817 29.0753 9.92459C28.0182 8.86747 26.3023 8.86747 25.2452 9.92459Z" fill="#36688B" fill-opacity="0.35"/>
</svg>
