<svg width="29" height="29" viewBox="0 0 29 29" fill="none" xmlns="http://www.w3.org/2000/svg">
<path d="M25.3333 11.7916H17.2083V3.66659C17.2083 2.17159 15.9949 0.958252 14.4999 0.958252C13.0049 0.958252 11.7916 2.17159 11.7916 3.66659V11.7916H3.66659C2.17159 11.7916 0.958252 13.0049 0.958252 14.4999C0.958252 15.9949 2.17159 17.2083 3.66659 17.2083H11.7916V25.3333C11.7916 26.8283 13.0049 28.0416 14.4999 28.0416C15.9949 28.0416 17.2083 26.8283 17.2083 25.3333V17.2083H25.3333C26.8283 17.2083 28.0416 15.9949 28.0416 14.4999C28.0416 13.0049 26.8283 11.7916 25.3333 11.7916Z" fill="#36688B" fill-opacity="0.75"/>
</svg>
