<svg width="65" height="65" viewBox="0 0 65 65" fill="none" xmlns="http://www.w3.org/2000/svg">
<path d="M62.2917 29.7917C60.7967 29.7917 59.5833 31.005 59.5833 32.5C59.5833 47.4338 47.4338 59.5833 32.5 59.5833C17.5662 59.5833 5.41667 47.4338 5.41667 32.5C5.41667 17.5662 17.5662 5.41667 32.5 5.41667C39.7705 5.41667 46.5955 8.25771 51.7197 13.4171C52.7719 14.4787 54.4876 14.4855 55.5493 13.4306C56.6109 12.3771 56.6163 10.6627 55.5628 9.60104C49.4149 3.40979 41.2235 0 32.5 0C14.579 0 0 14.579 0 32.5C0 50.421 14.579 65 32.5 65C50.421 65 65 50.421 65 32.5C65 31.005 63.7867 29.7917 62.2917 29.7917Z" fill="#36688B" fill-opacity="0.35"/>
</svg>
