<svg width="115" height="115" viewBox="0 0 115 115" fill="none" xmlns="http://www.w3.org/2000/svg">
<g filter="url(#filter0_d)">
<path d="M87.2917 54.7917C85.7967 54.7917 84.5833 56.005 84.5833 57.5C84.5833 72.4338 72.4338 84.5833 57.5 84.5833C42.5662 84.5833 30.4167 72.4338 30.4167 57.5C30.4167 42.5662 42.5662 30.4167 57.5 30.4167C64.7705 30.4167 71.5955 33.2577 76.7197 38.4171C77.7719 39.4787 79.4876 39.4855 80.5493 38.4306C81.6109 37.3771 81.6163 35.6627 80.5628 34.601C74.4149 28.4098 66.2235 25 57.5 25C39.579 25 25 39.579 25 57.5C25 75.421 39.579 90 57.5 90C75.421 90 90 75.421 90 57.5C90 56.005 88.7867 54.7917 87.2917 54.7917Z" fill="#0754C7"/>
</g>
<defs>
<filter id="filter0_d" x="0" y="0" width="115" height="115" filterUnits="userSpaceOnUse" color-interpolation-filters="sRGB">
<feFlood flood-opacity="0" result="BackgroundImageFix"/>
<feColorMatrix in="SourceAlpha" type="matrix" values="0 0 0 0 0 0 0 0 0 0 0 0 0 0 0 0 0 0 127 0"/>
<feOffset/>
<feGaussianBlur stdDeviation="12.5"/>
<feColorMatrix type="matrix" values="0 0 0 0 0.027451 0 0 0 0 0.329412 0 0 0 0 0.780392 0 0 0 0.65 0"/>
<feBlend mode="normal" in2="BackgroundImageFix" result="effect1_dropShadow"/>
<feBlend mode="normal" in="SourceGraphic" in2="effect1_dropShadow" result="shape"/>
</filter>
</defs>
</svg>
